<svg width="25" height="38" viewBox="0 0 25 38" fill="none" xmlns="http://www.w3.org/2000/svg">
<path d="M24.653 4.24827C24.3287 3.75163 23.8549 3.73736 23.3151 3.72111C23.2539 3.71927 23.1919 3.7174 23.1291 3.7148C23.0814 3.7126 23.0286 3.71345 22.9735 3.71434C22.7546 3.71785 22.4985 3.72197 22.3694 3.53799C22.2198 3.3247 22.234 2.91251 22.2457 2.57222C22.2494 2.4647 22.2529 2.36429 22.2509 2.27967C22.2298 1.48919 22.186 0.649502 21.8808 0.368794C21.6507 0.158184 20.9624 0.187361 20.3275 0.214269C20.1217 0.222992 19.9215 0.231477 19.7444 0.231477H6.23151C5.95944 0.231477 5.67424 0.209323 5.39402 0.187555C4.848 0.14514 4.32087 0.104193 3.94655 0.231477C3.40329 0.417105 3.36651 1.39254 3.33187 2.31106L3.33001 2.36048C3.30092 3.11876 3.11301 3.70387 2.4902 3.64493C1.76583 3.57749 1.04504 3.55622 0.717534 4.21181C0.330737 4.98749 0.410509 5.79945 0.553394 7.2538C0.573805 7.46154 0.595503 7.6824 0.617313 7.91813H24.862C24.8758 7.74583 24.8906 7.57574 24.9051 7.4084C25.0186 6.09994 25.1176 4.95989 24.653 4.24827Z" fill="#8047F8"/>
<path fill-rule="evenodd" clip-rule="evenodd" d="M2.50541 9.36055C2.88407 14.4853 3.25859 19.616 3.63312 24.7467L3.63335 24.7499C3.8367 27.5357 4.04006 30.3215 4.24408 33.1065H5.01766C5.07038 33.5424 5.1307 34.0806 5.19429 34.648C5.32338 35.7998 5.46599 37.0723 5.58589 37.8542H5.67145C6.45941 37.5659 11.9067 35.2375 11.9092 25.9677C11.9081 25.9412 11.909 25.9148 11.9118 25.8886H10.566C10.5008 25.888 10.4377 25.8662 10.3863 25.8267C10.3348 25.7871 10.298 25.732 10.2813 25.6697C10.1502 25.3457 10.0444 25.0123 9.96503 24.6723C9.17332 25.1194 8.5446 25.8022 8.1685 26.6233C7.81148 25.7824 7.76475 24.8441 8.03648 23.9726C8.30821 23.101 8.8811 22.3515 9.65507 21.8552C9.66504 19.1502 10.6778 16.5427 12.5017 14.5262L12.5301 14.5012C12.5831 14.4554 12.651 14.4299 12.7214 14.4293C12.7621 14.4297 12.8023 14.4383 12.8395 14.4548C12.8771 14.4715 12.9107 14.4959 12.9382 14.5262C14.7833 16.5454 15.7907 19.178 15.7595 21.8989C16.5479 22.3815 17.1324 23.1304 17.4047 24.0067C17.6769 24.883 17.6183 25.8272 17.2397 26.664C16.8656 25.8416 16.2364 25.1582 15.4432 24.7129C15.3947 25.0425 15.3055 25.3648 15.1775 25.6728C15.1332 25.8042 15.0446 25.8886 14.9561 25.8886H13.5209C13.5231 25.9043 13.5247 25.9201 13.5257 25.9359L13.5262 25.9396V25.9472C13.5267 25.9609 13.5267 25.9746 13.5263 25.9883C13.5459 35.5242 19.3376 37.6887 19.8258 37.8542H19.9927C20.0354 37.1031 20.1742 36.0667 20.3094 35.0563C20.4027 34.36 20.4942 33.6761 20.5516 33.1065H21.3341C21.5846 29.5985 21.8422 26.1004 22.0998 22.6023L22.0999 22.6004L22.1 22.5993C22.4295 18.1248 22.7591 13.6501 23.0737 9.15457H2.55552C2.49647 9.16612 2.50049 9.26272 2.50541 9.36055ZM12.7214 14.4293L12.7199 14.4293H12.7231L12.7214 14.4293Z" fill="#8047F8"/>
</svg>
